<svg width="47" height="30" viewBox="0 0 47 30" fill="none" xmlns="http://www.w3.org/2000/svg">
<path d="M38.9659 13.7535V8.12326H32.0692V0H26.5008V8.12326H16.033V13.7535H26.5008V24.373H16.033V30H26.5008H32.0692V13.7535H38.9659Z" fill="#0F97AA"/>
<path d="M16.5873 21.8767V16.2465H5.5652V5.62701H16.5873V0H5.5652H0V5.62701V16.2465V21.8767V30H5.5652V21.8767H16.5873Z" fill="#063C43"/>
<path d="M42.983 21.8767C41.9176 21.8767 40.8958 22.3046 40.1425 23.0663C39.3892 23.828 38.9659 24.8611 38.9659 25.9383C38.9659 27.0155 39.3892 28.0486 40.1425 28.8103C40.8958 29.572 41.9176 30 42.983 30V30C44.0483 30 45.0701 29.572 45.8234 28.8103C46.5768 28.0486 47 27.0155 47 25.9383C47 24.8611 46.5768 23.828 45.8234 23.0663C45.0701 22.3046 44.0483 21.8767 42.983 21.8767V21.8767Z" fill="#063C43"/>
</svg>
