<svg width="136" height="24" viewBox="0 0 136 24" fill="none" xmlns="http://www.w3.org/2000/svg">
<path d="M3.58 18.24C3.56667 18.2667 3.56667 18.2933 3.58 18.32C3.59333 18.3333 3.61333 18.34 3.64 18.34H9.66C9.79333 18.34 9.86 18.4067 9.86 18.54V19.8C9.86 19.9333 9.79333 20 9.66 20H1.28C1.14667 20 1.08 19.9333 1.08 19.8V18.58C1.08 18.4867 1.11333 18.4067 1.18 18.34C1.63333 17.82 2.67333 16.6 4.3 14.68L5.68 13.02C6.92 11.54 7.54 10.3933 7.54 9.58C7.54 8.95333 7.32667 8.45333 6.9 8.08C6.48667 7.69333 5.93333 7.5 5.24 7.5C4.54667 7.5 3.99333 7.69333 3.58 8.08C3.16667 8.46667 2.96667 8.97333 2.98 9.6V10.2C2.98 10.3333 2.91333 10.4 2.78 10.4H1.24C1.10667 10.4 1.04 10.3333 1.04 10.2V9.34C1.06667 8.64667 1.26 8.03333 1.62 7.5C1.99333 6.96667 2.49333 6.56 3.12 6.28C3.74667 5.98667 4.45333 5.84 5.24 5.84C6.09333 5.84 6.84 6 7.48 6.32C8.12 6.64 8.61333 7.08 8.96 7.64C9.30667 8.2 9.48 8.83333 9.48 9.54C9.48 10.6467 8.88 11.9533 7.68 13.46C7.14667 14.14 6.51333 14.9067 5.78 15.76C5.04667 16.6 4.31333 17.4267 3.58 18.24ZM14.4589 18.24C14.4456 18.2667 14.4456 18.2933 14.4589 18.32C14.4722 18.3333 14.4922 18.34 14.5189 18.34H20.5389C20.6722 18.34 20.7389 18.4067 20.7389 18.54V19.8C20.7389 19.9333 20.6722 20 20.5389 20H12.1589C12.0256 20 11.9589 19.9333 11.9589 19.8V18.58C11.9589 18.4867 11.9922 18.4067 12.0589 18.34C12.5122 17.82 13.5522 16.6 15.1789 14.68L16.5589 13.02C17.7989 11.54 18.4189 10.3933 18.4189 9.58C18.4189 8.95333 18.2056 8.45333 17.7789 8.08C17.3656 7.69333 16.8122 7.5 16.1189 7.5C15.4256 7.5 14.8722 7.69333 14.4589 8.08C14.0456 8.46667 13.8456 8.97333 13.8589 9.6V10.2C13.8589 10.3333 13.7922 10.4 13.6589 10.4H12.1189C11.9856 10.4 11.9189 10.3333 11.9189 10.2V9.34C11.9456 8.64667 12.1389 8.03333 12.4989 7.5C12.8722 6.96667 13.3722 6.56 13.9989 6.28C14.6256 5.98667 15.3322 5.84 16.1189 5.84C16.9722 5.84 17.7189 6 18.3589 6.32C18.9989 6.64 19.4922 7.08 19.8389 7.64C20.1856 8.2 20.3589 8.83333 20.3589 9.54C20.3589 10.6467 19.7589 11.9533 18.5589 13.46C18.0256 14.14 17.3922 14.9067 16.6589 15.76C15.9256 16.6 15.1922 17.4267 14.4589 18.24ZM43.9213 20.2C42.5746 20.2 41.5013 19.82 40.7013 19.06C39.9146 18.2867 39.5213 17.2533 39.5213 15.96V10.04C39.5213 8.74667 39.9146 7.72 40.7013 6.96C41.5013 6.2 42.5746 5.82 43.9213 5.82C45.2679 5.82 46.3413 6.2 47.1413 6.96C47.9546 7.72 48.3613 8.74667 48.3613 10.04V15.96C48.3613 17.2533 47.9546 18.2867 47.1413 19.06C46.3413 19.82 45.2679 20.2 43.9213 20.2ZM43.9213 18.54C44.6946 18.54 45.3079 18.32 45.7613 17.88C46.2146 17.4267 46.4413 16.8267 46.4413 16.08V9.96C46.4413 9.21333 46.2146 8.62 45.7613 8.18C45.3079 7.72667 44.6946 7.5 43.9213 7.5C43.1746 7.5 42.5746 7.72667 42.1213 8.18C41.6679 8.62 41.4413 9.21333 41.4413 9.96V16.08C41.4413 16.8267 41.6679 17.4267 42.1213 17.88C42.5746 18.32 43.1746 18.54 43.9213 18.54ZM52.4094 20C52.3427 20 52.2894 19.98 52.2494 19.94C52.2227 19.8867 52.2227 19.8267 52.2494 19.76L56.7894 7.76C56.8027 7.73333 56.8027 7.71333 56.7894 7.7C56.776 7.67333 56.756 7.66 56.7294 7.66H51.9094C51.856 7.66 51.8294 7.68667 51.8294 7.74V8.68C51.8294 8.81333 51.7627 8.88 51.6294 8.88H50.4294C50.296 8.88 50.2294 8.81333 50.2294 8.68V6.2C50.2294 6.06667 50.296 6 50.4294 6H58.6494C58.7827 6 58.8494 6.06667 58.8494 6.2V7.54C58.8494 7.59333 58.836 7.67333 58.8094 7.78L54.2894 19.84C54.2494 19.9467 54.176 20 54.0694 20H52.4094ZM79.3417 18.24C79.3284 18.2667 79.3284 18.2933 79.3417 18.32C79.3551 18.3333 79.3751 18.34 79.4017 18.34H85.4217C85.5551 18.34 85.6217 18.4067 85.6217 18.54V19.8C85.6217 19.9333 85.5551 20 85.4217 20H77.0417C76.9084 20 76.8417 19.9333 76.8417 19.8V18.58C76.8417 18.4867 76.8751 18.4067 76.9417 18.34C77.3951 17.82 78.4351 16.6 80.0617 14.68L81.4417 13.02C82.6817 11.54 83.3017 10.3933 83.3017 9.58C83.3017 8.95333 83.0884 8.45333 82.6617 8.08C82.2484 7.69333 81.6951 7.5 81.0017 7.5C80.3084 7.5 79.7551 7.69333 79.3417 8.08C78.9284 8.46667 78.7284 8.97333 78.7417 9.6V10.2C78.7417 10.3333 78.6751 10.4 78.5417 10.4H77.0017C76.8684 10.4 76.8017 10.3333 76.8017 10.2V9.34C76.8284 8.64667 77.0217 8.03333 77.3817 7.5C77.7551 6.96667 78.2551 6.56 78.8817 6.28C79.5084 5.98667 80.2151 5.84 81.0017 5.84C81.8551 5.84 82.6017 6 83.2417 6.32C83.8817 6.64 84.3751 7.08 84.7217 7.64C85.0684 8.2 85.2417 8.83333 85.2417 9.54C85.2417 10.6467 84.6417 11.9533 83.4417 13.46C82.9084 14.14 82.2751 14.9067 81.5417 15.76C80.8084 16.6 80.0751 17.4267 79.3417 18.24ZM92.2806 20.2C90.934 20.2 89.8606 19.82 89.0606 19.06C88.274 18.2867 87.8806 17.2533 87.8806 15.96V10.04C87.8806 8.74667 88.274 7.72 89.0606 6.96C89.8606 6.2 90.934 5.82 92.2806 5.82C93.6273 5.82 94.7006 6.2 95.5006 6.96C96.314 7.72 96.7206 8.74667 96.7206 10.04V15.96C96.7206 17.2533 96.314 18.2867 95.5006 19.06C94.7006 19.82 93.6273 20.2 92.2806 20.2ZM92.2806 18.54C93.054 18.54 93.6673 18.32 94.1206 17.88C94.574 17.4267 94.8006 16.8267 94.8006 16.08V9.96C94.8006 9.21333 94.574 8.62 94.1206 8.18C93.6673 7.72667 93.054 7.5 92.2806 7.5C91.534 7.5 90.934 7.72667 90.4806 8.18C90.0273 8.62 89.8006 9.21333 89.8006 9.96V16.08C89.8006 16.8267 90.0273 17.4267 90.4806 17.88C90.934 18.32 91.534 18.54 92.2806 18.54ZM101.549 18.24C101.535 18.2667 101.535 18.2933 101.549 18.32C101.562 18.3333 101.582 18.34 101.609 18.34H107.629C107.762 18.34 107.829 18.4067 107.829 18.54V19.8C107.829 19.9333 107.762 20 107.629 20H99.2488C99.1154 20 99.0488 19.9333 99.0488 19.8V18.58C99.0488 18.4867 99.0821 18.4067 99.1488 18.34C99.6021 17.82 100.642 16.6 102.269 14.68L103.649 13.02C104.889 11.54 105.509 10.3933 105.509 9.58C105.509 8.95333 105.295 8.45333 104.869 8.08C104.455 7.69333 103.902 7.5 103.209 7.5C102.515 7.5 101.962 7.69333 101.549 8.08C101.135 8.46667 100.935 8.97333 100.949 9.6V10.2C100.949 10.3333 100.882 10.4 100.749 10.4H99.2088C99.0754 10.4 99.0088 10.3333 99.0088 10.2V9.34C99.0354 8.64667 99.2288 8.03333 99.5888 7.5C99.9621 6.96667 100.462 6.56 101.089 6.28C101.715 5.98667 102.422 5.84 103.209 5.84C104.062 5.84 104.809 6 105.449 6.32C106.089 6.64 106.582 7.08 106.929 7.64C107.275 8.2 107.449 8.83333 107.449 9.54C107.449 10.6467 106.849 11.9533 105.649 13.46C105.115 14.14 104.482 14.9067 103.749 15.76C103.015 16.6 102.282 17.4267 101.549 18.24ZM112.033 6.06C112.113 6.02 112.199 6 112.293 6H113.873C114.006 6 114.073 6.06667 114.073 6.2V19.8C114.073 19.9333 114.006 20 113.873 20H112.353C112.219 20 112.153 19.9333 112.153 19.8V8.06C112.153 8.03333 112.139 8.01333 112.113 8C112.099 7.98667 112.079 7.98667 112.053 8L109.953 8.72C109.926 8.73333 109.893 8.74 109.853 8.74C109.773 8.74 109.726 8.68667 109.713 8.58L109.633 7.44C109.633 7.30667 109.673 7.22667 109.753 7.2L112.033 6.06Z" fill="#063C43"/>
<path d="M26.5017 20C26.3551 20 26.3017 19.9267 26.3417 19.78L31.0417 6.16C31.0817 6.05333 31.1617 6 31.2817 6H32.7817C32.9284 6 32.9817 6.07333 32.9417 6.22L28.2417 19.84C28.2017 19.9467 28.1217 20 28.0017 20H26.5017ZM63.9822 20C63.8355 20 63.7822 19.9267 63.8222 19.78L68.5222 6.16C68.5622 6.05333 68.6422 6 68.7622 6H70.2622C70.4089 6 70.4622 6.07333 70.4222 6.22L65.7222 19.84C65.6822 19.9467 65.6022 20 65.4822 20H63.9822Z" fill="#CACACA"/>
<path d="M128.209 10.2104C128.462 9.9546 128.857 9.93216 129.135 10.1425L129.214 10.2126L131.999 13.054L134.786 10.2126C135.037 9.95569 135.432 9.93152 135.711 10.1406L135.791 10.2104C136.044 10.4662 136.067 10.8672 135.862 11.1503L135.793 11.2315L132.504 14.5874C132.251 14.8451 131.855 14.8685 131.576 14.6577L131.496 14.5874L128.207 11.2315C127.93 10.9489 127.931 10.4917 128.209 10.2104Z" fill="#063C43"/>
</svg>
